<?xml version="1.0" standalone="no"?>
<!DOCTYPE svg PUBLIC "-//W3C//DTD SVG 20010904//EN"
 "http://www.w3.org/TR/2001/REC-SVG-20010904/DTD/svg10.dtd">
<svg version="1.0" xmlns="http://www.w3.org/2000/svg"
 width="379.000000pt" height="379.000000pt" viewBox="0 0 379.000000 379.000000"
 preserveAspectRatio="xMidYMid meet">
<metadata>
Created by potrace 1.14, written by Peter Selinger 2001-2017
</metadata>
<g transform="translate(0.000000,379.000000) scale(0.100000,-0.100000)"
fill="#000000" stroke="none">
<path d="M1812 3769 c-53 -26 -74 -54 -147 -194 -32 -60 -65 -123 -75 -140
-10 -16 -33 -59 -52 -95 -19 -36 -64 -119 -100 -185 -36 -66 -87 -160 -113
-210 -26 -49 -55 -103 -65 -120 -10 -16 -34 -61 -55 -100 -64 -121 -443 -822
-543 -1004 -52 -96 -97 -191 -99 -210 -10 -77 33 -162 101 -199 26 -14 70 -18
282 -22 l251 -5 -144 -235 c-78 -129 -147 -242 -152 -250 -5 -8 -33 -53 -62
-100 -28 -47 -102 -166 -162 -265 l-111 -180 0 -65 c-1 -84 27 -129 102 -167
43 -21 62 -25 101 -20 51 6 54 8 316 157 94 54 193 110 220 124 28 15 73 41
100 57 28 17 64 37 80 45 17 8 39 21 50 27 30 18 125 72 165 94 19 11 109 62
200 113 91 51 181 102 200 113 19 11 91 51 158 89 68 39 127 66 132 62 4 -5
76 -121 160 -259 84 -137 183 -298 219 -358 36 -59 75 -123 87 -142 l20 -34
140 86 c76 47 149 91 162 97 12 6 20 17 17 24 -3 7 -43 75 -89 150 -434 704
-398 629 -321 672 402 224 404 226 431 296 28 73 16 111 -86 299 -15 28 -49
91 -75 140 -26 50 -56 104 -65 120 -18 31 -54 99 -135 250 -26 50 -51 95 -55
100 -4 6 -35 64 -70 130 -34 66 -70 134 -80 150 -10 17 -34 62 -55 100 -21 39
-50 93 -65 120 -15 28 -46 86 -70 130 -41 77 -67 124 -129 238 -15 28 -50 93
-76 142 -27 50 -65 119 -84 155 -20 36 -52 96 -71 134 -74 148 -177 200 -288
145z m133 -664 c21 -38 48 -89 61 -113 13 -23 47 -86 75 -140 29 -53 60 -110
69 -127 10 -16 39 -70 65 -120 26 -49 56 -103 65 -120 10 -16 37 -66 60 -110
24 -44 55 -102 70 -130 15 -27 44 -81 65 -120 21 -38 50 -92 65 -120 15 -27
47 -86 70 -130 24 -44 55 -102 70 -130 98 -178 102 -188 88 -196 -44 -29 -250
-141 -252 -138 -2 2 -85 139 -186 304 -245 402 -230 379 -270 438 -78 116
-235 129 -313 26 -22 -30 -131 -207 -265 -430 l-46 -76 -182 0 -182 0 40 76
c62 116 206 383 267 494 15 28 45 84 66 122 21 39 50 93 65 120 35 65 87 161
137 255 49 91 233 432 240 443 8 13 17 0 58 -78z m14 -1513 c28 -46 51 -86 51
-89 0 -3 10 -18 21 -35 32 -45 149 -239 149 -247 0 -4 -15 -15 -32 -24 -18 -9
-55 -29 -83 -45 -27 -16 -72 -42 -100 -57 -27 -16 -115 -65 -195 -110 -80 -46
-167 -95 -195 -110 -45 -25 -97 -55 -234 -132 -24 -14 -41 -21 -39 -17 7 12
264 432 336 549 68 111 145 236 207 338 26 43 51 75 55 70 4 -4 31 -45 59 -91z"/>
</g>
</svg>
